<?xml version="1.0" encoding="UTF-8"?>
<svg version="1.1" xmlns="http://www.w3.org/2000/svg" width="128" height="128">
<path d="M0 0 C42.24 0 84.48 0 128 0 C128 42.24 128 84.48 128 128 C85.76 128 43.52 128 0 128 C0 85.76 0 43.52 0 0 Z " fill="#141414" transform="translate(0,0)"/>
<path d="M0 0 C3.1179299 1.61560039 5.67657071 3.34925158 8 6 C9.47882724 11.16276965 8.40041394 15.57962941 6 20.25 C2.95795027 26.19485071 3.66666219 32.49065328 4 39 C6.14814077 38.10955572 6.14814077 38.10955572 8 36 C8.72062677 32.24902017 8.50641842 28.40929828 8.48828125 24.60351562 C8.59768337 18.54164349 8.59768337 18.54164349 10.90625 15.43359375 C13 14 13 14 15 14 C15 13.01 15 12.02 15 11 C21.19396054 11.9606374 27.40020846 13.46287592 32 18 C32 19.32 32 20.64 32 22 C25.90218999 22.22084624 20.78357065 22.01167675 15 20 C14.73067479 24.65052872 14.73067479 24.65052872 16 29 C16.3980983 33.77717965 16.62667382 37.36598689 13.609375 41.3671875 C10.53617732 44.48514049 7.03691121 47.10623177 3.55859375 49.75390625 C0.96013277 52.03499795 -0.53317 53.88236472 -2 57 C-1.88290154 60.39585535 -1.62287966 62.90080059 0.0625 65.875 C3.19023091 67.69110182 6.44105176 68.13875042 10 68 C12.43063337 66.86225672 14.11813896 65.88186104 16 64 C16.04092937 61.66702567 16.04241723 59.33294775 16 57 C14.35 56.67 12.7 56.34 11 56 C10.34 57.98 9.68 59.96 9 62 C6.50380746 60.12785559 6.03134877 59.2104846 5.5625 56.0625 C6 53 6 53 7.5 50.625 C10.94640869 48.38483435 14.05996065 48.20261108 18 49 C20.8100346 50.79363911 22.50940468 52.01880935 24 55 C24.42495098 59.15961633 24.46838248 62.85506505 22.875 66.75 C19.79396994 70.44723607 16.64766299 73.450779 12 75 C4.5832999 75.66143086 -1.04803266 75.71197415 -7 71 C-9.92499853 67.70000166 -11.23045099 65.29430228 -11.3125 60.9375 C-11 57 -11 57 -10.25 54.3125 C-9.71948495 51.77494094 -9.71948495 51.77494094 -11.875 49.3125 C-12.57625 48.549375 -13.2775 47.78625 -14 47 C-15.95700507 43.08598986 -15.36680467 38.27731547 -15 34 C-13.5625 31.1875 -13.5625 31.1875 -12 29 C-11.28598768 25.80604974 -11.28598768 25.80604974 -11 23 C-12.175625 23.4640625 -12.175625 23.4640625 -13.375 23.9375 C-17.89851578 25.26335807 -22.31431814 25.64811085 -27 26 C-27.33 24.68 -27.66 23.36 -28 22 C-27.360625 21.896875 -26.72125 21.79375 -26.0625 21.6875 C-25.0415625 21.3471875 -25.0415625 21.3471875 -24 21 C-23.67 20.01 -23.34 19.02 -23 18 C-21.0390625 16.796875 -21.0390625 16.796875 -18.625 15.75 C-17.83351563 15.39421875 -17.04203125 15.0384375 -16.2265625 14.671875 C-14 14 -14 14 -11 15 C-11.33 15.66 -11.66 16.32 -12 17 C-11.401875 17.103125 -10.80375 17.20625 -10.1875 17.3125 C-7.4982311 18.1576988 -6.53968125 18.61349407 -5 21 C-4.61064102 25.90592311 -4.69684024 28.68157545 -7 33 C-7.47172245 37.22568709 -7.47172245 37.22568709 -5.625 40.875 C-4.05533986 42.18973666 -4.05533986 42.18973666 -2 42 C-2.33 41.01 -2.66 40.02 -3 39 C-3.62931488 31.06650586 -3.46373434 24.37352331 0.125 17.18359375 C1.14677188 14.63372552 1.22347947 12.72365603 1 10 C-0.0595877 8.71677453 -0.0595877 8.71677453 -2.5 8.875 C-4.9404123 8.71677453 -4.9404123 8.71677453 -6 10 C-7.68183948 10.23287008 -9.3712416 10.41264166 -11.0625 10.5625 C-11.98160156 10.64628906 -12.90070312 10.73007812 -13.84765625 10.81640625 C-14.55792969 10.87699219 -15.26820312 10.93757813 -16 11 C-16 9.68 -16 8.36 -16 7 C-14.171875 5.3671875 -14.171875 5.3671875 -11.75 3.875 C-10.96109375 3.37742187 -10.1721875 2.87984375 -9.359375 2.3671875 C-8.58078125 1.91601562 -7.8021875 1.46484375 -7 1 C-6.30390625 0.59007813 -5.6078125 0.18015625 -4.890625 -0.2421875 C-3 -1 -3 -1 0 0 Z " fill="#E9E9E7" transform="translate(61,27)"/>
<path d="M0 0 C0.33 1.32 0.66 2.64 1 4 C2.98 4 4.96 4 7 4 C7 4.33 7 4.66 7 5 C5.906875 5.103125 4.81375 5.20625 3.6875 5.3125 C0.16069668 5.74272492 0.16069668 5.74272492 -1.9375 7.1875 C-3.49472705 9.84394615 -3.25676862 11.98296868 -3 15 C-2.67 15.66 -2.34 16.32 -2 17 C-1.62875 15.7934375 -1.62875 15.7934375 -1.25 14.5625 C0 12 0 12 1.9375 11.0625 C4 11 4 11 7 13 C7.49455021 16.81510158 7.58019187 19.08136287 5.5 22.375 C2.12430619 24.56920098 -1.03698205 25.1981509 -5 25 C-8.26638514 23.85071634 -10.23837462 22.92719612 -12.4375 20.25 C-13.31135606 16.75457576 -12.9452359 14.48555739 -12 11 C-8.88767978 6.15410727 -4.89904375 2.91609747 0 0 Z " fill="#1D1C1A" transform="translate(71,71)"/>
<path d="M0 0 C2.5625 0.1875 2.5625 0.1875 4.5625 2.1875 C4.34146756 6.53447132 3.95119814 9.41010372 2 13.3125 C-0.95739876 19.53025057 -0.43348107 28.70056151 1.5625 35.1875 C-0.8125 34.875 -0.8125 34.875 -3.4375 34.1875 C-5.76286063 30.69945905 -5.77207898 29.28609246 -5.4375 25.1875 C-5.1075 24.56875 -4.7775 23.95 -4.4375 23.3125 C-2.80659574 19.84682846 -3.13500846 16.99889338 -3.4375 13.1875 C-5.24913267 10.51318511 -6.31511077 10.22829641 -9.4375 9.1875 C-9.4375 8.5275 -9.4375 7.8675 -9.4375 7.1875 C-10.7575 7.1875 -12.0775 7.1875 -13.4375 7.1875 C-13.4375 5.8675 -13.4375 4.5475 -13.4375 3.1875 C-12.72722656 3.05472656 -12.01695313 2.92195313 -11.28515625 2.78515625 C-10.36605469 2.60855469 -9.44695313 2.43195312 -8.5 2.25 C-7.12521484 1.98896484 -7.12521484 1.98896484 -5.72265625 1.72265625 C-3.09307347 1.10683943 -2.73264669 0.21020359 0 0 Z " fill="#181816" transform="translate(58.4375,34.8125)"/>
<path d="M0 0 C0.33 1.32 0.66 2.64 1 4 C1.99 3.67 2.98 3.34 4 3 C5.33106622 2.65772583 6.66400079 2.32248257 8 2 C7.8125 3.75 7.8125 3.75 7 6 C5.75669922 6.77923828 5.75669922 6.77923828 4.48828125 7.57421875 C1.31528984 10.66751179 1.43562403 12.33389063 1.3515625 16.60351562 C1.35929687 17.41498047 1.36703125 18.22644531 1.375 19.0625 C1.375 20.67843788 1.36249 22.29443654 1.3359375 23.91015625 C1.34157715 24.62308838 1.3472168 25.33602051 1.35302734 26.07055664 C0.89612499 28.56772076 -0.01860679 29.46283696 -2 31 C-2.66 31 -3.32 31 -4 31 C-6.13747723 23.40587358 -5.48195121 17.17115593 -1.95703125 10.18359375 C-0.48090573 6.81561757 -0.26535912 3.64868784 0 0 Z " fill="#31312F" transform="translate(69,35)"/>
<path d="M0 0 C-0.33 0.66 -0.66 1.32 -1 2 C-0.01 2.33 0.98 2.66 2 3 C0.61850976 5.76298047 -0.38772254 7.62892275 -3.0625 9.25 C-7.32823604 10.33912409 -11.61720053 10.67660897 -16 11 C-16.33 9.68 -16.66 8.36 -17 7 C-16.360625 6.896875 -15.72125 6.79375 -15.0625 6.6875 C-14.381875 6.460625 -13.70125 6.23375 -13 6 C-12.67 5.01 -12.34 4.02 -12 3 C-10.0390625 1.796875 -10.0390625 1.796875 -7.625 0.75 C-6.83351563 0.39421875 -6.04203125 0.0384375 -5.2265625 -0.328125 C-3 -1 -3 -1 0 0 Z " fill="#D7D7D7" transform="translate(50,42)"/>
<path d="M0 0 C0.33 0.66 0.66 1.32 1 2 C0.01 2.66 -0.98 3.32 -2 4 C-2.33 4.66 -2.66 5.32 -3 6 C-2.34 6.66 -1.68 7.32 -1 8 C-5.8043208 10.4021604 -10.73103895 10.61122229 -16 11 C-16 9.68 -16 8.36 -16 7 C-14.171875 5.3671875 -14.171875 5.3671875 -11.75 3.875 C-10.96109375 3.37742187 -10.1721875 2.87984375 -9.359375 2.3671875 C-8.58078125 1.91601562 -7.8021875 1.46484375 -7 1 C-6.30390625 0.59007813 -5.6078125 0.18015625 -4.890625 -0.2421875 C-3 -1 -3 -1 0 0 Z " fill="#D0D0D0" transform="translate(61,27)"/>
<path d="M0 0 C6.19396054 0.9606374 12.40020846 2.46287592 17 7 C17 8.32 17 9.64 17 11 C6.44191344 11.3690205 6.44191344 11.3690205 2 9 C2.66 8.01 3.32 7.02 4 6 C4.66 6 5.32 6 6 6 C3.8614515 3.8614515 2.86724686 3.57344937 0 3 C0 2.01 0 1.02 0 0 Z " fill="#E8E8E8" transform="translate(76,38)"/>
<path d="M0 0 C0.99 0.66 1.98 1.32 3 2 C3.2578125 5.1171875 3.2578125 5.1171875 3.125 8.875 C2.89069047 14.51903831 2.89069047 14.51903831 4 20 C1.625 19.6875 1.625 19.6875 -1 19 C-3.32536063 15.51195905 -3.33457898 14.09859246 -3 10 C-2.36729133 8.65022151 -1.69937532 7.31647119 -1 6 C-0.61709538 4.00889599 -0.27395385 2.00899487 0 0 Z " fill="#30302E" transform="translate(56,50)"/>
<path d="M0 0 C0.99 0.33 1.98 0.66 3 1 C3 1.66 3 2.32 3 3 C3.66 3 4.32 3 5 3 C5.3669579 9.48292295 5.3669579 9.48292295 3.625 11.9375 C2 13 2 13 0 13 C-0.19551338 11.39679026 -0.38111983 9.79237014 -0.5625 8.1875 C-0.71912109 6.84751953 -0.71912109 6.84751953 -0.87890625 5.48046875 C-1 3 -1 3 0 0 Z " fill="#191917" transform="translate(65,53)"/>
<path d="M0 0 C0.99 0.33 1.98 0.66 3 1 C3 2.65 3 4.3 3 6 C2.34 6 1.68 6 1 6 C1.33 8.31 1.66 10.62 2 13 C1.34 12.67 0.68 12.34 0 12 C-0.703125 9.78515625 -0.703125 9.78515625 -1.25 7.0625 C-1.44078125 6.16660156 -1.6315625 5.27070312 -1.828125 4.34765625 C-1.88484375 3.57292969 -1.9415625 2.79820313 -2 2 C-1.34 1.34 -0.68 0.68 0 0 Z " fill="#F0F1EF" transform="translate(51,45)"/>
<path d="M0 0 C4.455 0.99 4.455 0.99 9 2 C9 2.66 9 3.32 9 4 C9.66 4.33 10.32 4.66 11 5 C11 5.66 11 6.32 11 7 C9.68 7.33 8.36 7.66 7 8 C6.5875 7.360625 6.175 6.72125 5.75 6.0625 C3.82189513 3.79009069 2.88575819 3.39803561 0 3 C0 2.01 0 1.02 0 0 Z " fill="#CBCBCA" transform="translate(76,38)"/>
<path d="M0 0 C0.33 1.32 0.66 2.64 1 4 C2.98 4 4.96 4 7 4 C7 4.33 7 4.66 7 5 C5.329375 5.2165625 5.329375 5.2165625 3.625 5.4375 C0.17857953 5.78372035 0.17857953 5.78372035 -2 7 C-3.32 6.01 -4.64 5.02 -6 4 C-4.02 2.68 -2.04 1.36 0 0 Z " fill="#2F2D2C" transform="translate(71,71)"/>
<path d="M0 0 C0.33 0.99 0.66 1.98 1 3 C-1.31 3.66 -3.62 4.32 -6 5 C-6.33 3.68 -6.66 2.36 -7 1 C-3.375 -1.125 -3.375 -1.125 0 0 Z " fill="#E2E2E2" transform="translate(40,48)"/>
<path d="M0 0 C0.33 0.66 0.66 1.32 1 2 C2.64363134 2.72159424 4.31050386 3.39351421 6 4 C6 4.33 6 4.66 6 5 C1.545 5.495 1.545 5.495 -3 6 C-3 4.68 -3 3.36 -3 2 C-2.01 1.34 -1.02 0.68 0 0 Z " fill="#E7E7E7" transform="translate(48,32)"/>
<path d="M0 0 C0.99 0 1.98 0 3 0 C4.10844919 3.32534757 3.84454356 5.62182575 3 9 C1.5 7.875 1.5 7.875 0 6 C-0.1875 2.8125 -0.1875 2.8125 0 0 Z " fill="#DCDAD8" transform="translate(67,80)"/>
<path d="M0 0 C0 0.99 0 1.98 0 3 C-1.98 3.33 -3.96 3.66 -6 4 C-6 2.68 -6 1.36 -6 0 C-3 -1 -3 -1 0 0 Z " fill="#222222" transform="translate(51,38)"/>
<path d="M0 0 C3 1 3 1 4 3 C3.01 3.66 2.02 4.32 1 5 C0.34 5.66 -0.32 6.32 -1 7 C-1.625 4.625 -1.625 4.625 -2 2 C-1.34 1.34 -0.68 0.68 0 0 Z " fill="#C9C9C9" transform="translate(58,26)"/>
<path d="M0 0 C1.11375 0.556875 1.11375 0.556875 2.25 1.125 C-0.39738916 2.5856285 -1.64448334 3.125 -4.75 3.125 C-5.41 2.465 -6.07 1.805 -6.75 1.125 C-4.02098495 -0.69434337 -3.21400584 -1.02263822 0 0 Z " fill="#DADADA" transform="translate(57.75,32.875)"/>
</svg>
